<svg xmlns="http://www.w3.org/2000/svg" width="360" height="116" viewBox="0 0 360 116">
  <style>
    @media (prefers-color-scheme: light) { .dark { display: none; } }
    @media (prefers-color-scheme: dark) { .light { display: none; } }
  </style>
  <g class="light"><svg xmlns="http://www.w3.org/2000/svg" width="360" height="116" viewBox="0 0 360 116"><rect width="360" height="116" fill="#ffffff" stroke="#d0d7de" stroke-width="1"/><g transform="translate(12, 17)" fill="#636c76"><svg xmlns="http://www.w3.org/2000/svg" width="16" height="16" viewBox="0 0 16 16"><path d="M0 2.75C0 1.784.784 1 1.75 1h12.5c.966 0 1.75.784 1.75 1.75v1.5A1.75 1.75 0 0 1 14.25 6H1.75A1.75 1.75 0 0 1 0 4.25ZM1.75 7a.75.75 0 0 1 .75.75v5.5c0 .138.112.25.25.25h10.5a.25.25 0 0 0 .25-.25v-5.5a.75.75 0 0 1 1.5 0v5.5A1.75 1.75 0 0 1 13.25 15H2.75A1.75 1.75 0 0 1 1 13.25v-5.5A.75.75 0 0 1 1.75 7Zm0-4.5a.25.25 0 0 0-.25.25v1.5c0 .138.112.25.25.25h12.5a.25.25 0 0 0 .25-.25v-1.5a.25.25 0 0 0-.25-.25ZM6.25 8h3.5a.75.75 0 0 1 0 1.5h-3.5a.75.75 0 0 1 0-1.5Z"/></svg></g><a href="https://github.com/yozhgoor/hello-bevy"><text x="34" y="30" font-family="Liberation Sans" font-size="18" font-weight="bold" fill="#0969da">hello-bevy</text></a><text x="12" y="65" font-family="Liberation Sans" font-size="14" fill="#1f2328">Hello world project using Bevy</text><circle cx="17" cy="99" r="5" fill="#dea584"/><text x="28" y="104" font-family="Liberation Sans" font-size="14" fill="#1f2328">Rust</text><g transform="translate(79, 91)" fill="#636c76"><svg xmlns="http://www.w3.org/2000/svg" width="16" height="16" viewBox="0 0 16 16"><path d="M8 .25a.75.75 0 0 1 .673.418l1.882 3.815 4.21.612a.75.75 0 0 1 .416 1.279l-3.046 2.97.719 4.192a.751.751 0 0 1-1.088.791L8 12.347l-3.766 1.98a.75.75 0 0 1-1.088-.79l.72-4.194L.818 6.374a.75.75 0 0 1 .416-1.28l4.21-.611L7.327.668A.75.75 0 0 1 8 .25Zm0 2.445L6.615 5.5a.75.75 0 0 1-.564.41l-3.097.45 2.24 2.184a.75.75 0 0 1 .216.664l-.528 3.084 2.769-1.456a.75.75 0 0 1 .698 0l2.77 1.456-.53-3.084a.75.75 0 0 1 .216-.664l2.24-2.183-3.096-.45a.75.75 0 0 1-.564-.41L8 2.694Z"/></svg></g><text x="101" y="104" font-family="Liberation Sans" font-size="14" fill="#1f2328">0</text><g transform="translate(146, 91)" fill="#636c76"><svg xmlns="http://www.w3.org/2000/svg" width="16" height="16" viewBox="0 0 16 16"><path d="M5 5.372v.878c0 .414.336.75.75.75h4.5a.75.75 0 0 0 .75-.75v-.878a2.25 2.25 0 1 1 1.5 0v.878a2.25 2.25 0 0 1-2.25 2.25h-1.5v2.128a2.251 2.251 0 1 1-1.5 0V8.5h-1.5A2.25 2.25 0 0 1 3.5 6.25v-.878a2.25 2.25 0 1 1 1.5 0ZM5 3.25a.75.75 0 1 0-1.5 0 .75.75 0 0 0 1.5 0Zm6.75.75a.75.75 0 1 0 0-1.5.75.75 0 0 0 0 1.5Zm-3 8.75a.75.75 0 1 0-1.5 0 .75.75 0 0 0 1.5 0Z"/></svg></g><text x="168" y="104" font-family="Liberation Sans" font-size="14" fill="#1f2328">0</text><g transform="translate(213, 91)" fill="#636c76"><svg xmlns="http://www.w3.org/2000/svg" width="16" height="16" viewBox="0 0 16 16"><path d="M1.5 3.25a2.25 2.25 0 1 1 3 2.122v5.256a2.251 2.251 0 1 1-1.5 0V5.372A2.25 2.25 0 0 1 1.5 3.25Zm5.677-.177L9.573.677A.25.25 0 0 1 10 .854V2.5h1A2.5 2.5 0 0 1 13.5 5v5.628a2.251 2.251 0 1 1-1.5 0V5a1 1 0 0 0-1-1h-1v1.646a.25.25 0 0 1-.427.177L7.177 3.427a.25.25 0 0 1 0-.354ZM3.75 2.5a.75.75 0 1 0 0 1.5.75.75 0 0 0 0-1.5Zm0 9.5a.75.75 0 1 0 0 1.5.75.75 0 0 0 0-1.5Zm8.25.75a.75.75 0 1 0 1.5 0 .75.75 0 0 0-1.5 0Z"/></svg></g><text x="235" y="104" font-family="Liberation Sans" font-size="14" fill="#1f2328">0</text><g transform="translate(280, 91)" fill="#636c76"><svg xmlns="http://www.w3.org/2000/svg" width="16" height="16" viewBox="0 0 16 16"><path d="M8 9.5a1.5 1.5 0 1 0 0-3 1.5 1.5 0 0 0 0 3Z"/><path d="M8 0a8 8 0 1 1 0 16A8 8 0 0 1 8 0ZM1.5 8a6.5 6.5 0 1 0 13 0 6.5 6.5 0 0 0-13 0Z"/></svg></g><text x="302" y="104" font-family="Liberation Sans" font-size="14" fill="#1f2328">0</text></svg></g>
  <g class="dark"><svg xmlns="http://www.w3.org/2000/svg" width="360" height="116" viewBox="0 0 360 116"><rect width="360" height="116" fill="#161b22" stroke="#30363d" stroke-width="1"/><g transform="translate(12, 17)" fill="#7d8590"><svg xmlns="http://www.w3.org/2000/svg" width="16" height="16" viewBox="0 0 16 16"><path d="M0 2.75C0 1.784.784 1 1.75 1h12.5c.966 0 1.75.784 1.75 1.75v1.5A1.75 1.75 0 0 1 14.25 6H1.75A1.75 1.75 0 0 1 0 4.25ZM1.75 7a.75.75 0 0 1 .75.75v5.5c0 .138.112.25.25.25h10.5a.25.25 0 0 0 .25-.25v-5.5a.75.75 0 0 1 1.5 0v5.5A1.75 1.75 0 0 1 13.25 15H2.75A1.75 1.75 0 0 1 1 13.25v-5.5A.75.75 0 0 1 1.75 7Zm0-4.5a.25.25 0 0 0-.25.25v1.5c0 .138.112.25.25.25h12.5a.25.25 0 0 0 .25-.25v-1.5a.25.25 0 0 0-.25-.25ZM6.25 8h3.5a.75.75 0 0 1 0 1.5h-3.5a.75.75 0 0 1 0-1.5Z"/></svg></g><a href="https://github.com/yozhgoor/hello-bevy"><text x="34" y="30" font-family="Liberation Sans" font-size="18" font-weight="bold" fill="#2f81f7">hello-bevy</text></a><text x="12" y="65" font-family="Liberation Sans" font-size="14" fill="#e6edf3">Hello world project using Bevy</text><circle cx="17" cy="99" r="5" fill="#dea584"/><text x="28" y="104" font-family="Liberation Sans" font-size="14" fill="#e6edf3">Rust</text><g transform="translate(79, 91)" fill="#7d8590"><svg xmlns="http://www.w3.org/2000/svg" width="16" height="16" viewBox="0 0 16 16"><path d="M8 .25a.75.75 0 0 1 .673.418l1.882 3.815 4.21.612a.75.75 0 0 1 .416 1.279l-3.046 2.97.719 4.192a.751.751 0 0 1-1.088.791L8 12.347l-3.766 1.98a.75.75 0 0 1-1.088-.79l.72-4.194L.818 6.374a.75.75 0 0 1 .416-1.28l4.21-.611L7.327.668A.75.75 0 0 1 8 .25Zm0 2.445L6.615 5.5a.75.75 0 0 1-.564.41l-3.097.45 2.24 2.184a.75.75 0 0 1 .216.664l-.528 3.084 2.769-1.456a.75.75 0 0 1 .698 0l2.77 1.456-.53-3.084a.75.75 0 0 1 .216-.664l2.24-2.183-3.096-.45a.75.75 0 0 1-.564-.41L8 2.694Z"/></svg></g><text x="101" y="104" font-family="Liberation Sans" font-size="14" fill="#e6edf3">0</text><g transform="translate(146, 91)" fill="#7d8590"><svg xmlns="http://www.w3.org/2000/svg" width="16" height="16" viewBox="0 0 16 16"><path d="M5 5.372v.878c0 .414.336.75.75.75h4.5a.75.75 0 0 0 .75-.75v-.878a2.25 2.25 0 1 1 1.5 0v.878a2.25 2.25 0 0 1-2.25 2.25h-1.5v2.128a2.251 2.251 0 1 1-1.5 0V8.5h-1.5A2.25 2.25 0 0 1 3.5 6.25v-.878a2.25 2.25 0 1 1 1.5 0ZM5 3.25a.75.75 0 1 0-1.5 0 .75.75 0 0 0 1.5 0Zm6.75.75a.75.75 0 1 0 0-1.5.75.75 0 0 0 0 1.5Zm-3 8.75a.75.75 0 1 0-1.5 0 .75.75 0 0 0 1.5 0Z"/></svg></g><text x="168" y="104" font-family="Liberation Sans" font-size="14" fill="#e6edf3">0</text><g transform="translate(213, 91)" fill="#7d8590"><svg xmlns="http://www.w3.org/2000/svg" width="16" height="16" viewBox="0 0 16 16"><path d="M1.5 3.25a2.25 2.25 0 1 1 3 2.122v5.256a2.251 2.251 0 1 1-1.5 0V5.372A2.25 2.25 0 0 1 1.5 3.25Zm5.677-.177L9.573.677A.25.25 0 0 1 10 .854V2.5h1A2.5 2.5 0 0 1 13.5 5v5.628a2.251 2.251 0 1 1-1.5 0V5a1 1 0 0 0-1-1h-1v1.646a.25.25 0 0 1-.427.177L7.177 3.427a.25.25 0 0 1 0-.354ZM3.75 2.5a.75.75 0 1 0 0 1.5.75.75 0 0 0 0-1.5Zm0 9.5a.75.75 0 1 0 0 1.5.75.75 0 0 0 0-1.5Zm8.25.75a.75.75 0 1 0 1.5 0 .75.75 0 0 0-1.5 0Z"/></svg></g><text x="235" y="104" font-family="Liberation Sans" font-size="14" fill="#e6edf3">0</text><g transform="translate(280, 91)" fill="#7d8590"><svg xmlns="http://www.w3.org/2000/svg" width="16" height="16" viewBox="0 0 16 16"><path d="M8 9.5a1.5 1.5 0 1 0 0-3 1.5 1.5 0 0 0 0 3Z"/><path d="M8 0a8 8 0 1 1 0 16A8 8 0 0 1 8 0ZM1.5 8a6.5 6.5 0 1 0 13 0 6.5 6.5 0 0 0-13 0Z"/></svg></g><text x="302" y="104" font-family="Liberation Sans" font-size="14" fill="#e6edf3">0</text></svg></g>
</svg>