<svg xmlns="http://www.w3.org/2000/svg" width="440" height="238" viewBox="0 0 440 238">
  <style>
    @media (prefers-color-scheme: light) { .dark { display: none; } }
    @media (prefers-color-scheme: dark) { .light { display: none; } }
  </style>
  <g class="light"><svg xmlns="http://www.w3.org/2000/svg" width="440" height="238" viewBox="0 0 440 238"><rect width="440" height="238" fill="#ffffff" stroke="#d0d7de" stroke-width="1"/><g transform="translate(12, 15)" fill="#636c76"><svg xmlns="http://www.w3.org/2000/svg" width="16" height="16" viewBox="0 0 16 16"><path d="m11.28 3.22 4.25 4.25a.75.75 0 0 1 0 1.06l-4.25 4.25a.749.749 0 0 1-1.275-.326.749.749 0 0 1 .215-.734L13.94 8l-3.72-3.72a.749.749 0 0 1 .326-1.275.749.749 0 0 1 .734.215Zm-6.56 0a.751.751 0 0 1 1.042.018.751.751 0 0 1 .018 1.042L2.06 8l3.72 3.72a.749.749 0 0 1-.326 1.275.749.749 0 0 1-.734-.215L.47 8.53a.75.75 0 0 1 0-1.06Z"/></svg></g><text x="34" y="30" font-family="Liberation Sans" font-size="18" font-weight="bold" fill="#1f2328">Languages</text><circle cx="17" cy="51" r="5" fill="#dea584"/><text x="28" y="56" font-family="Liberation Sans" font-size="14" fill="#1f2328">Rust</text><rect x="101" y="48" width="277" height="8" rx="4" fill="#d0d7de"/><rect x="101" y="48" width="270" height="8" rx="4" fill="#dea584"/><text x="428" y="56" font-family="Liberation Sans" font-size="14" text-anchor="end" fill="#636c76">97.4%</text><circle cx="17" cy="73" r="5" fill="#7e7eff"/><text x="28" y="78" font-family="Liberation Sans" font-size="14" fill="#1f2328">Nix</text><rect x="101" y="70" width="277" height="8" rx="4" fill="#d0d7de"/><rect x="101" y="70" width="4" height="8" rx="4" fill="#7e7eff"/><text x="428" y="78" font-family="Liberation Sans" font-size="14" text-anchor="end" fill="#636c76">1.5%</text><circle cx="17" cy="95" r="5" fill="#555555"/><text x="28" y="100" font-family="Liberation Sans" font-size="14" fill="#1f2328">C</text><rect x="101" y="92" width="277" height="8" rx="4" fill="#d0d7de"/><rect x="101" y="92" width="1" height="8" rx="4" fill="#555555"/><text x="428" y="100" font-family="Liberation Sans" font-size="14" text-anchor="end" fill="#636c76">0.4%</text><circle cx="17" cy="117" r="5" fill="#89e051"/><text x="28" y="122" font-family="Liberation Sans" font-size="14" fill="#1f2328">Shell</text><rect x="101" y="114" width="277" height="8" rx="4" fill="#d0d7de"/><rect x="101" y="114" width="1" height="8" rx="4" fill="#89e051"/><text x="428" y="122" font-family="Liberation Sans" font-size="14" text-anchor="end" fill="#636c76">0.3%</text><circle cx="17" cy="139" r="5" fill="#000080"/><text x="28" y="144" font-family="Liberation Sans" font-size="14" fill="#1f2328">Lua</text><rect x="101" y="136" width="277" height="8" rx="4" fill="#d0d7de"/><rect x="101" y="136" width="1" height="8" rx="4" fill="#000080"/><text x="428" y="144" font-family="Liberation Sans" font-size="14" text-anchor="end" fill="#636c76">0.3%</text><circle cx="17" cy="161" r="5" fill="#427819"/><text x="28" y="166" font-family="Liberation Sans" font-size="14" fill="#1f2328">Makefile</text><rect x="101" y="158" width="277" height="8" rx="4" fill="#d0d7de"/><text x="428" y="166" font-family="Liberation Sans" font-size="14" text-anchor="end" fill="#636c76">0.1%</text><circle cx="17" cy="183" r="5" fill="#e34c26"/><text x="28" y="188" font-family="Liberation Sans" font-size="14" fill="#1f2328">HTML</text><rect x="101" y="180" width="277" height="8" rx="4" fill="#d0d7de"/><text x="428" y="188" font-family="Liberation Sans" font-size="14" text-anchor="end" fill="#636c76">0.0%</text><circle cx="17" cy="205" r="5" fill="#663399"/><text x="28" y="210" font-family="Liberation Sans" font-size="14" fill="#1f2328">CSS</text><rect x="101" y="202" width="277" height="8" rx="4" fill="#d0d7de"/><text x="428" y="210" font-family="Liberation Sans" font-size="14" text-anchor="end" fill="#636c76">0.0%</text></svg></g>
  <g class="dark"><svg xmlns="http://www.w3.org/2000/svg" width="440" height="238" viewBox="0 0 440 238"><rect width="440" height="238" fill="#161b22" stroke="#30363d" stroke-width="1"/><g transform="translate(12, 15)" fill="#7d8590"><svg xmlns="http://www.w3.org/2000/svg" width="16" height="16" viewBox="0 0 16 16"><path d="m11.28 3.22 4.25 4.25a.75.75 0 0 1 0 1.06l-4.25 4.25a.749.749 0 0 1-1.275-.326.749.749 0 0 1 .215-.734L13.94 8l-3.72-3.72a.749.749 0 0 1 .326-1.275.749.749 0 0 1 .734.215Zm-6.56 0a.751.751 0 0 1 1.042.018.751.751 0 0 1 .018 1.042L2.06 8l3.72 3.72a.749.749 0 0 1-.326 1.275.749.749 0 0 1-.734-.215L.47 8.53a.75.75 0 0 1 0-1.06Z"/></svg></g><text x="34" y="30" font-family="Liberation Sans" font-size="18" font-weight="bold" fill="#e6edf3">Languages</text><circle cx="17" cy="51" r="5" fill="#dea584"/><text x="28" y="56" font-family="Liberation Sans" font-size="14" fill="#e6edf3">Rust</text><rect x="101" y="48" width="277" height="8" rx="4" fill="#30363d"/><rect x="101" y="48" width="270" height="8" rx="4" fill="#dea584"/><text x="428" y="56" font-family="Liberation Sans" font-size="14" text-anchor="end" fill="#7d8590">97.4%</text><circle cx="17" cy="73" r="5" fill="#7e7eff"/><text x="28" y="78" font-family="Liberation Sans" font-size="14" fill="#e6edf3">Nix</text><rect x="101" y="70" width="277" height="8" rx="4" fill="#30363d"/><rect x="101" y="70" width="4" height="8" rx="4" fill="#7e7eff"/><text x="428" y="78" font-family="Liberation Sans" font-size="14" text-anchor="end" fill="#7d8590">1.5%</text><circle cx="17" cy="95" r="5" fill="#555555"/><text x="28" y="100" font-family="Liberation Sans" font-size="14" fill="#e6edf3">C</text><rect x="101" y="92" width="277" height="8" rx="4" fill="#30363d"/><rect x="101" y="92" width="1" height="8" rx="4" fill="#555555"/><text x="428" y="100" font-family="Liberation Sans" font-size="14" text-anchor="end" fill="#7d8590">0.4%</text><circle cx="17" cy="117" r="5" fill="#89e051"/><text x="28" y="122" font-family="Liberation Sans" font-size="14" fill="#e6edf3">Shell</text><rect x="101" y="114" width="277" height="8" rx="4" fill="#30363d"/><rect x="101" y="114" width="1" height="8" rx="4" fill="#89e051"/><text x="428" y="122" font-family="Liberation Sans" font-size="14" text-anchor="end" fill="#7d8590">0.3%</text><circle cx="17" cy="139" r="5" fill="#000080"/><text x="28" y="144" font-family="Liberation Sans" font-size="14" fill="#e6edf3">Lua</text><rect x="101" y="136" width="277" height="8" rx="4" fill="#30363d"/><rect x="101" y="136" width="1" height="8" rx="4" fill="#000080"/><text x="428" y="144" font-family="Liberation Sans" font-size="14" text-anchor="end" fill="#7d8590">0.3%</text><circle cx="17" cy="161" r="5" fill="#427819"/><text x="28" y="166" font-family="Liberation Sans" font-size="14" fill="#e6edf3">Makefile</text><rect x="101" y="158" width="277" height="8" rx="4" fill="#30363d"/><text x="428" y="166" font-family="Liberation Sans" font-size="14" text-anchor="end" fill="#7d8590">0.1%</text><circle cx="17" cy="183" r="5" fill="#e34c26"/><text x="28" y="188" font-family="Liberation Sans" font-size="14" fill="#e6edf3">HTML</text><rect x="101" y="180" width="277" height="8" rx="4" fill="#30363d"/><text x="428" y="188" font-family="Liberation Sans" font-size="14" text-anchor="end" fill="#7d8590">0.0%</text><circle cx="17" cy="205" r="5" fill="#663399"/><text x="28" y="210" font-family="Liberation Sans" font-size="14" fill="#e6edf3">CSS</text><rect x="101" y="202" width="277" height="8" rx="4" fill="#30363d"/><text x="428" y="210" font-family="Liberation Sans" font-size="14" text-anchor="end" fill="#7d8590">0.0%</text></svg></g>
</svg>