<svg xmlns="http://www.w3.org/2000/svg" width="440" height="128" viewBox="0 0 440 128">
  <style>
    @media (prefers-color-scheme: light) { .dark { display: none; } }
    @media (prefers-color-scheme: dark) { .light { display: none; } }
  </style>
  <g class="light"><svg xmlns="http://www.w3.org/2000/svg" width="440" height="128" viewBox="0 0 440 128"><rect width="440" height="128" fill="#ffffff" stroke="#d0d7de" stroke-width="1"/><g transform="translate(12, 17)" fill="#636c76"><svg xmlns="http://www.w3.org/2000/svg" width="16" height="16" viewBox="0 0 16 16"><path d="M10.561 8.073a6.005 6.005 0 0 1 3.432 5.142.75.75 0 1 1-1.498.07 4.5 4.5 0 0 0-8.99 0 .75.75 0 0 1-1.498-.07 6.004 6.004 0 0 1 3.431-5.142 3.999 3.999 0 1 1 5.123 0ZM10.5 5a2.5 2.5 0 1 0-5 0 2.5 2.5 0 0 0 5 0Z"/></svg></g><text x="34" y="30" font-family="Liberation Sans" font-size="18" font-weight="bold" fill="#1f2328">yozhgoor's stats</text><g transform="translate(12, 49)" fill="#636c76"><svg xmlns="http://www.w3.org/2000/svg" width="16" height="16" viewBox="0 0 16 16"><path d="M8 .25a.75.75 0 0 1 .673.418l1.882 3.815 4.21.612a.75.75 0 0 1 .416 1.279l-3.046 2.97.719 4.192a.751.751 0 0 1-1.088.791L8 12.347l-3.766 1.98a.75.75 0 0 1-1.088-.79l.72-4.194L.818 6.374a.75.75 0 0 1 .416-1.28l4.21-.611L7.327.668A.75.75 0 0 1 8 .25Zm0 2.445L6.615 5.5a.75.75 0 0 1-.564.41l-3.097.45 2.24 2.184a.75.75 0 0 1 .216.664l-.528 3.084 2.769-1.456a.75.75 0 0 1 .698 0l2.77 1.456-.53-3.084a.75.75 0 0 1 .216-.664l2.24-2.183-3.096-.45a.75.75 0 0 1-.564-.41L8 2.694Z"/></svg></g><text x="34" y="62" font-family="Liberation Sans" font-size="14" fill="#636c76">Stars:</text><text x="173" y="62" font-family="Liberation Sans" font-size="14" text-anchor="end" fill="#1f2328">93</text><g transform="translate(232, 49)" fill="#636c76"><svg xmlns="http://www.w3.org/2000/svg" width="16" height="16" viewBox="0 0 16 16"><path d="M8 9.5a1.5 1.5 0 1 0 0-3 1.5 1.5 0 0 0 0 3Z"/><path d="M8 0a8 8 0 1 1 0 16A8 8 0 0 1 8 0ZM1.5 8a6.5 6.5 0 1 0 13 0 6.5 6.5 0 0 0-13 0Z"/></svg></g><text x="254" y="62" font-family="Liberation Sans" font-size="14" fill="#636c76">Issues:</text><text x="393" y="62" font-family="Liberation Sans" font-size="14" text-anchor="end" fill="#1f2328">55</text><g transform="translate(12, 71)" fill="#636c76"><svg xmlns="http://www.w3.org/2000/svg" width="16" height="16" viewBox="0 0 16 16"><path d="M11.93 8.5a4.002 4.002 0 0 1-7.86 0H.75a.75.75 0 0 1 0-1.5h3.32a4.002 4.002 0 0 1 7.86 0h3.32a.75.75 0 0 1 0 1.5Zm-1.43-.75a2.5 2.5 0 1 0-5 0 2.5 2.5 0 0 0 5 0Z"/></svg></g><text x="34" y="84" font-family="Liberation Sans" font-size="14" fill="#636c76">Commits:</text><text x="173" y="84" font-family="Liberation Sans" font-size="14" text-anchor="end" fill="#1f2328">864</text><g transform="translate(232, 71)" fill="#636c76"><svg xmlns="http://www.w3.org/2000/svg" width="16" height="16" viewBox="0 0 16 16"><path d="M1.5 3.25a2.25 2.25 0 1 1 3 2.122v5.256a2.251 2.251 0 1 1-1.5 0V5.372A2.25 2.25 0 0 1 1.5 3.25Zm5.677-.177L9.573.677A.25.25 0 0 1 10 .854V2.5h1A2.5 2.5 0 0 1 13.5 5v5.628a2.251 2.251 0 1 1-1.5 0V5a1 1 0 0 0-1-1h-1v1.646a.25.25 0 0 1-.427.177L7.177 3.427a.25.25 0 0 1 0-.354ZM3.75 2.5a.75.75 0 1 0 0 1.5.75.75 0 0 0 0-1.5Zm0 9.5a.75.75 0 1 0 0 1.5.75.75 0 0 0 0-1.5Zm8.25.75a.75.75 0 1 0 1.5 0 .75.75 0 0 0-1.5 0Z"/></svg></g><text x="254" y="84" font-family="Liberation Sans" font-size="14" fill="#636c76">Pull Requests:</text><text x="393" y="84" font-family="Liberation Sans" font-size="14" text-anchor="end" fill="#1f2328">336</text><g transform="translate(12, 93)" fill="#636c76"><svg xmlns="http://www.w3.org/2000/svg" width="16" height="16" viewBox="0 0 16 16"><path d="M2 2.5A2.5 2.5 0 0 1 4.5 0h8.75a.75.75 0 0 1 .75.75v3.5a.75.75 0 0 1-1.5 0V1.5h-8a1 1 0 0 0-1 1v6.708A2.493 2.493 0 0 1 4.5 9h2.25a.75.75 0 0 1 0 1.5H4.5a1 1 0 0 0 0 2h4.75a.75.75 0 0 1 0 1.5H4.5A2.5 2.5 0 0 1 2 11.5Zm12.23 7.79h-.001l-1.224-1.224v6.184a.75.75 0 0 1-1.5 0V9.066L10.28 10.29a.75.75 0 0 1-1.06-1.061l2.505-2.504a.75.75 0 0 1 1.06 0L15.29 9.23a.751.751 0 0 1-.018 1.042.751.751 0 0 1-1.042.018Z"/></svg></g><text x="34" y="106" font-family="Liberation Sans" font-size="14" fill="#636c76">Contributed to:</text><text x="173" y="106" font-family="Liberation Sans" font-size="14" text-anchor="end" fill="#1f2328">5</text><g transform="translate(232, 93)" fill="#636c76"><svg xmlns="http://www.w3.org/2000/svg" width="16" height="16" viewBox="0 0 16 16"><path d="M1.75 16A1.75 1.75 0 0 1 0 14.25V1.75C0 .784.784 0 1.75 0h8.5C11.216 0 12 .784 12 1.75v12.5c0 .085-.006.168-.018.25h2.268a.25.25 0 0 0 .25-.25V8.285a.25.25 0 0 0-.111-.208l-1.055-.703a.749.749 0 1 1 .832-1.248l1.055.703c.487.325.779.871.779 1.456v5.965A1.75 1.75 0 0 1 14.25 16h-3.5a.766.766 0 0 1-.197-.026c-.099.017-.2.026-.303.026h-3a.75.75 0 0 1-.75-.75V14h-1v1.25a.75.75 0 0 1-.75.75Zm-.25-1.75c0 .138.112.25.25.25H4v-1.25a.75.75 0 0 1 .75-.75h2.5a.75.75 0 0 1 .75.75v1.25h2.25a.25.25 0 0 0 .25-.25V1.75a.25.25 0 0 0-.25-.25h-8.5a.25.25 0 0 0-.25.25ZM3.75 6h.5a.75.75 0 0 1 0 1.5h-.5a.75.75 0 0 1 0-1.5ZM3 3.75A.75.75 0 0 1 3.75 3h.5a.75.75 0 0 1 0 1.5h-.5A.75.75 0 0 1 3 3.75Zm4 3A.75.75 0 0 1 7.75 6h.5a.75.75 0 0 1 0 1.5h-.5A.75.75 0 0 1 7 6.75ZM7.75 3h.5a.75.75 0 0 1 0 1.5h-.5a.75.75 0 0 1 0-1.5ZM3 9.75A.75.75 0 0 1 3.75 9h.5a.75.75 0 0 1 0 1.5h-.5A.75.75 0 0 1 3 9.75ZM7.75 9h.5a.75.75 0 0 1 0 1.5h-.5a.75.75 0 0 1 0-1.5Z"/></svg></g><text x="254" y="106" font-family="Liberation Sans" font-size="14" fill="#636c76">Organizations:</text><text x="393" y="106" font-family="Liberation Sans" font-size="14" text-anchor="end" fill="#1f2328">4</text></svg></g>
  <g class="dark"><svg xmlns="http://www.w3.org/2000/svg" width="440" height="128" viewBox="0 0 440 128"><rect width="440" height="128" fill="#161b22" stroke="#30363d" stroke-width="1"/><g transform="translate(12, 17)" fill="#7d8590"><svg xmlns="http://www.w3.org/2000/svg" width="16" height="16" viewBox="0 0 16 16"><path d="M10.561 8.073a6.005 6.005 0 0 1 3.432 5.142.75.75 0 1 1-1.498.07 4.5 4.5 0 0 0-8.99 0 .75.75 0 0 1-1.498-.07 6.004 6.004 0 0 1 3.431-5.142 3.999 3.999 0 1 1 5.123 0ZM10.5 5a2.5 2.5 0 1 0-5 0 2.5 2.5 0 0 0 5 0Z"/></svg></g><text x="34" y="30" font-family="Liberation Sans" font-size="18" font-weight="bold" fill="#e6edf3">yozhgoor's stats</text><g transform="translate(12, 49)" fill="#7d8590"><svg xmlns="http://www.w3.org/2000/svg" width="16" height="16" viewBox="0 0 16 16"><path d="M8 .25a.75.75 0 0 1 .673.418l1.882 3.815 4.21.612a.75.75 0 0 1 .416 1.279l-3.046 2.97.719 4.192a.751.751 0 0 1-1.088.791L8 12.347l-3.766 1.98a.75.75 0 0 1-1.088-.79l.72-4.194L.818 6.374a.75.75 0 0 1 .416-1.28l4.21-.611L7.327.668A.75.75 0 0 1 8 .25Zm0 2.445L6.615 5.5a.75.75 0 0 1-.564.41l-3.097.45 2.24 2.184a.75.75 0 0 1 .216.664l-.528 3.084 2.769-1.456a.75.75 0 0 1 .698 0l2.77 1.456-.53-3.084a.75.75 0 0 1 .216-.664l2.24-2.183-3.096-.45a.75.75 0 0 1-.564-.41L8 2.694Z"/></svg></g><text x="34" y="62" font-family="Liberation Sans" font-size="14" fill="#7d8590">Stars:</text><text x="173" y="62" font-family="Liberation Sans" font-size="14" text-anchor="end" fill="#e6edf3">93</text><g transform="translate(232, 49)" fill="#7d8590"><svg xmlns="http://www.w3.org/2000/svg" width="16" height="16" viewBox="0 0 16 16"><path d="M8 9.5a1.5 1.5 0 1 0 0-3 1.5 1.5 0 0 0 0 3Z"/><path d="M8 0a8 8 0 1 1 0 16A8 8 0 0 1 8 0ZM1.5 8a6.5 6.5 0 1 0 13 0 6.5 6.5 0 0 0-13 0Z"/></svg></g><text x="254" y="62" font-family="Liberation Sans" font-size="14" fill="#7d8590">Issues:</text><text x="393" y="62" font-family="Liberation Sans" font-size="14" text-anchor="end" fill="#e6edf3">55</text><g transform="translate(12, 71)" fill="#7d8590"><svg xmlns="http://www.w3.org/2000/svg" width="16" height="16" viewBox="0 0 16 16"><path d="M11.93 8.5a4.002 4.002 0 0 1-7.86 0H.75a.75.75 0 0 1 0-1.5h3.32a4.002 4.002 0 0 1 7.86 0h3.32a.75.75 0 0 1 0 1.5Zm-1.43-.75a2.5 2.5 0 1 0-5 0 2.5 2.5 0 0 0 5 0Z"/></svg></g><text x="34" y="84" font-family="Liberation Sans" font-size="14" fill="#7d8590">Commits:</text><text x="173" y="84" font-family="Liberation Sans" font-size="14" text-anchor="end" fill="#e6edf3">864</text><g transform="translate(232, 71)" fill="#7d8590"><svg xmlns="http://www.w3.org/2000/svg" width="16" height="16" viewBox="0 0 16 16"><path d="M1.5 3.25a2.25 2.25 0 1 1 3 2.122v5.256a2.251 2.251 0 1 1-1.5 0V5.372A2.25 2.25 0 0 1 1.5 3.25Zm5.677-.177L9.573.677A.25.25 0 0 1 10 .854V2.5h1A2.5 2.5 0 0 1 13.5 5v5.628a2.251 2.251 0 1 1-1.5 0V5a1 1 0 0 0-1-1h-1v1.646a.25.25 0 0 1-.427.177L7.177 3.427a.25.25 0 0 1 0-.354ZM3.75 2.5a.75.75 0 1 0 0 1.5.75.75 0 0 0 0-1.5Zm0 9.5a.75.75 0 1 0 0 1.5.75.75 0 0 0 0-1.5Zm8.25.75a.75.75 0 1 0 1.5 0 .75.75 0 0 0-1.5 0Z"/></svg></g><text x="254" y="84" font-family="Liberation Sans" font-size="14" fill="#7d8590">Pull Requests:</text><text x="393" y="84" font-family="Liberation Sans" font-size="14" text-anchor="end" fill="#e6edf3">336</text><g transform="translate(12, 93)" fill="#7d8590"><svg xmlns="http://www.w3.org/2000/svg" width="16" height="16" viewBox="0 0 16 16"><path d="M2 2.5A2.5 2.5 0 0 1 4.5 0h8.75a.75.75 0 0 1 .75.75v3.5a.75.75 0 0 1-1.5 0V1.5h-8a1 1 0 0 0-1 1v6.708A2.493 2.493 0 0 1 4.5 9h2.25a.75.75 0 0 1 0 1.5H4.5a1 1 0 0 0 0 2h4.75a.75.75 0 0 1 0 1.5H4.5A2.5 2.5 0 0 1 2 11.5Zm12.23 7.79h-.001l-1.224-1.224v6.184a.75.75 0 0 1-1.5 0V9.066L10.28 10.29a.75.75 0 0 1-1.06-1.061l2.505-2.504a.75.75 0 0 1 1.06 0L15.29 9.23a.751.751 0 0 1-.018 1.042.751.751 0 0 1-1.042.018Z"/></svg></g><text x="34" y="106" font-family="Liberation Sans" font-size="14" fill="#7d8590">Contributed to:</text><text x="173" y="106" font-family="Liberation Sans" font-size="14" text-anchor="end" fill="#e6edf3">5</text><g transform="translate(232, 93)" fill="#7d8590"><svg xmlns="http://www.w3.org/2000/svg" width="16" height="16" viewBox="0 0 16 16"><path d="M1.75 16A1.75 1.75 0 0 1 0 14.25V1.75C0 .784.784 0 1.75 0h8.5C11.216 0 12 .784 12 1.75v12.5c0 .085-.006.168-.018.25h2.268a.25.25 0 0 0 .25-.25V8.285a.25.25 0 0 0-.111-.208l-1.055-.703a.749.749 0 1 1 .832-1.248l1.055.703c.487.325.779.871.779 1.456v5.965A1.75 1.75 0 0 1 14.25 16h-3.5a.766.766 0 0 1-.197-.026c-.099.017-.2.026-.303.026h-3a.75.75 0 0 1-.75-.75V14h-1v1.25a.75.75 0 0 1-.75.75Zm-.25-1.75c0 .138.112.25.25.25H4v-1.25a.75.75 0 0 1 .75-.75h2.5a.75.75 0 0 1 .75.75v1.25h2.25a.25.25 0 0 0 .25-.25V1.75a.25.25 0 0 0-.25-.25h-8.5a.25.25 0 0 0-.25.25ZM3.75 6h.5a.75.75 0 0 1 0 1.5h-.5a.75.75 0 0 1 0-1.5ZM3 3.75A.75.75 0 0 1 3.75 3h.5a.75.75 0 0 1 0 1.5h-.5A.75.75 0 0 1 3 3.75Zm4 3A.75.75 0 0 1 7.75 6h.5a.75.75 0 0 1 0 1.5h-.5A.75.75 0 0 1 7 6.75ZM7.75 3h.5a.75.75 0 0 1 0 1.5h-.5a.75.75 0 0 1 0-1.5ZM3 9.75A.75.75 0 0 1 3.75 9h.5a.75.75 0 0 1 0 1.5h-.5A.75.75 0 0 1 3 9.75ZM7.75 9h.5a.75.75 0 0 1 0 1.5h-.5a.75.75 0 0 1 0-1.5Z"/></svg></g><text x="254" y="106" font-family="Liberation Sans" font-size="14" fill="#7d8590">Organizations:</text><text x="393" y="106" font-family="Liberation Sans" font-size="14" text-anchor="end" fill="#e6edf3">4</text></svg></g>
</svg>